<svg xmlns="http://www.w3.org/2000/svg" viewBox="0 0 24 24" width="24" height="24" fill="none" stroke-width="1.5" stroke-linecap="round" stroke-linejoin="round" role="img" aria-label="Swarm"><title>Swarm</title><style>.g{stroke:var(--agent-icon-gold,#E8B84A)}.o{stroke:var(--agent-icon-orange,#C97A3C)}.gf{fill:var(--agent-icon-gold,#E8B84A)}.of{fill:var(--agent-icon-orange,#C97A3C)}.df{fill:var(--agent-icon-dot,#5FB0D8)}@media (prefers-color-scheme:light){.g{stroke:var(--agent-icon-gold,#A87613)}.o{stroke:var(--agent-icon-orange,#B4592A)}.gf{fill:var(--agent-icon-gold,#A87613)}.of{fill:var(--agent-icon-orange,#B4592A)}.df{fill:var(--agent-icon-dot,#2A86B8)}}</style><path d="M12.0 3.1 L15.03 4.85 L15.03 8.35 L12.0 10.1 L8.97 8.35 L8.97 4.85 Z" class="g"/><circle cx="12" cy="6.6" r="1" class="df"/><path d="M8.88 8.5 L11.91 10.25 L11.91 13.75 L8.88 15.5 L5.85 13.75 L5.85 10.25 Z" class="o"/><circle cx="8.88" cy="12" r="1" class="df"/><path d="M15.12 8.5 L18.15 10.25 L18.15 13.75 L15.12 15.5 L12.09 13.75 L12.09 10.25 Z" class="o"/><circle cx="15.12" cy="12" r="1" class="df"/><path d="M12.0 13.9 L15.03 15.65 L15.03 19.15 L12.0 20.9 L8.97 19.15 L8.97 15.65 Z" class="g"/><circle cx="12" cy="17.4" r="1" class="df"/></svg>
